<svg width="209" height="25" viewBox="0 0 209 25" fill="none" xmlns="http://www.w3.org/2000/svg">
<g clip-path="url(#clip0_3627_3199)">
<mask id="mask0_3627_3199" style="mask-type:luminance" maskUnits="userSpaceOnUse" x="0" y="0" width="209" height="25">
<path d="M209 0H0V25H209V0Z" fill="white"/>
</mask>
<g mask="url(#mask0_3627_3199)">
<g opacity="0.9">
<path d="M15.52 13.9948C15.52 9.72345 13.4606 7.29883 8.34346 7.29883C3.86964 7.29883 1.27558 9.43451 0.95393 12.7134H4.50458C4.82623 11.3943 6.20891 10.5065 8.30588 10.5065C11.113 10.5065 12.0362 11.8968 12.0362 14.0325V14.1037L5.28572 14.7444C1.73507 15.1003 -0.00683594 16.9136 -0.00683594 19.8365C-0.00683594 23.2536 2.47862 24.9999 5.89143 24.9999C9.0536 24.9999 10.971 23.5383 12.1072 21.0133H12.1448C12.1448 22.4035 12.3578 23.2201 12.9635 24.5392H16.3721C15.7664 23.1488 15.52 21.6917 15.52 19.3047V13.999V13.9948ZM12.0027 16.5953C12.0027 19.7988 9.76373 21.9722 6.71017 21.9722C4.75522 21.9722 3.548 21.1179 3.548 19.4429C3.548 18.0903 4.32915 17.3407 5.85802 17.1648L12.0027 16.4529V16.5953Z" fill="white"/>
<path d="M37.5051 0C36.2268 0 35.1616 1.06784 35.1616 2.31575C35.1616 3.63484 36.2268 4.665 37.5051 4.665C38.7833 4.665 39.8484 3.63066 39.8484 2.31575C39.8484 1.07203 38.7458 0 37.5051 0Z" fill="white"/>
<path d="M121.948 13.9948C121.948 9.72345 119.889 7.29883 114.772 7.29883C110.298 7.29883 107.704 9.43451 107.382 12.7134H110.933C111.255 11.3943 112.637 10.5065 114.734 10.5065C117.541 10.5065 118.464 11.8968 118.464 14.0325V14.1037L111.714 14.7444C108.163 15.1003 106.421 16.9136 106.421 19.8365C106.421 23.2536 108.907 24.9999 112.32 24.9999C115.482 24.9999 117.399 23.5383 118.535 21.0133H118.573C118.573 22.4035 118.786 23.2201 119.392 24.5392H122.8C122.195 23.1488 121.948 21.6917 121.948 19.3047V13.999V13.9948ZM118.431 16.5953C118.431 19.7988 116.192 21.9722 113.138 21.9722C111.184 21.9722 109.976 21.1179 109.976 19.4429C109.976 18.0903 110.757 17.3407 112.286 17.1648L118.431 16.4529V16.5953Z" fill="white"/>
<path d="M147.333 0C146.055 0 144.99 1.06784 144.99 2.31575C144.99 3.63484 146.055 4.665 147.333 4.665C148.611 4.665 149.677 3.63066 149.677 2.31575C149.677 1.07203 148.574 0 147.333 0Z" fill="white"/>
</g>
</g>
</g>
<defs>
<clipPath id="clip0_3627_3199">
<rect width="209" height="25" fill="white"/>
</clipPath>
</defs>
</svg>
